<svg xmlns="http://www.w3.org/2000/svg" width="1080" height="1920" viewBox="0 0 1080 1920"><defs>
  
  <filter id="grain" x="0" y="0" width="100%" height="100%">
    <feTurbulence type="fractalNoise" baseFrequency=".85" numOctaves="3" seed="7" stitchTiles="stitch"/>
    <feColorMatrix values="0 0 0 0 0  0 0 0 0 0  0 0 0 0 0  0 0 0 -1.6 1.25"/>
  </filter>
  <radialGradient id="vignette" cx=".5" cy=".45" r=".75"><stop offset=".6" stop-color="#0b2236" stop-opacity="0"/><stop offset="1" stop-color="#0b2236" stop-opacity=".22"/></radialGradient>
</defs><rect width="1080" height="1920" fill="#6aaedc"/><path d="M150 1920 Q120 820 560 760 Q1000 740 990 1920 Z" fill="#a8d1ef" opacity=".85"/><circle cx="40" cy="760" r="110" fill="#8cc2e8"/><path d="M60 1010 a80 80 0 1 0 0 1 Z" fill="#8cc2e8"/><path d="M900 640 L1010 560 L1010 700 Z" fill="#8cc2e8"/><path d="M960 900 l70 -80 l20 110 Z" fill="#8cc2e8"/><rect x="30" y="1240" width="170" height="120" fill="#8cc2e8"/><rect x="60" y="1120" width="120" height="120" fill="#8cc2e8"/><rect x="870" y="1250" width="190" height="130" fill="#8cc2e8"/><rect x="900" y="1130" width="140" height="120" fill="#8cc2e8"/><rect x="0" y="1700" width="1080" height="220" fill="#5a9fd0"/><ellipse cx="560" cy="1710" rx="300" ry="34" fill="#3f7fae" opacity=".55"/><g transform="translate(600 890) scale(1.1)"><g><path d="M-115 360 L110 360 L120 760 L30 760 L5 470 L-20 760 L-110 760 Z" fill="#2b3140"/><path d="M-125 740 h105 v40 h-130 q-5 -40 25 -40 Z M25 740 h105 q25 0 25 40 h-130 Z" fill="#4a3426"/><path d="M-120 40 Q-190 70 -205 190 L-150 200 Q-140 110 -95 80 Z" fill="#2d5550"/><path d="M-200 175 Q-235 250 -255 300 L-215 318 Q-190 260 -158 190 Z" fill="#c9714f"/><path d="M-128 28 Q-60 -8 0 0 Q70 -6 128 30 Q160 120 140 380 L-120 380 Q-150 200 -128 28 Z" fill="#3e6e68"/><path d="M40 2 Q100 0 128 30 Q160 120 140 380 L60 380 Q90 200 40 2 Z" fill="#2d5550"/><ellipse cx="96" cy="120" rx="30" ry="50" fill="#28504b"/><ellipse cx="-20" cy="70" rx="46" ry="28" fill="#28504b" opacity=".7"/><path d="M-40 0 L-8 66 L22 0 Z" fill="#f4ede4"/><path d="M-58 -6 L-10 58 L-26 74 L-72 14 Z" fill="#4f817a"/><path d="M40 -6 L-6 58 L8 72 L56 12 Z" fill="#4f817a"/><circle cx="-6" cy="96" r="6" fill="#c9714f"/><circle cx="-6" cy="124" r="6" fill="#c9714f"/><path d="M-38 -70 L28 -70 L22 4 Q-6 22 -36 4 Z" fill="#c9714f"/><path d="M-60 -238 Q-10 -262 44 -232 Q72 -200 64 -150 Q60 -110 40 -86 Q18 -54 -22 -48 Q-56 -46 -70 -64 L-76 -92 Q-90 -100 -84 -112 L-92 -124 Q-104 -128 -100 -138 L-84 -170 Q-84 -208 -60 -238 Z" fill="#e8956b"/><path d="M18 -230 Q72 -200 64 -150 Q60 -110 40 -86 Q18 -54 -22 -48 Q20 -80 22 -130 Q24 -190 18 -230 Z" fill="#c9714f"/><ellipse cx="34" cy="-140" rx="15" ry="24" fill="#a85a3e"/><ellipse cx="-36" cy="-118" rx="24" ry="13" fill="#dd5f4f" opacity=".55"/><ellipse cx="-30" cy="-200" rx="36" ry="10" fill="#dd5f4f" opacity=".3"/><path d="M-76 -170 L-98 -134 L-80 -126 Z" fill="#c9714f"/><path d="M-60 -190 L-20 -178 L-22 -170 L-58 -180 Z" fill="#3b2a22"/><path d="M-92 -176 L-70 -190 L-68 -182 L-88 -170 Z" fill="#3b2a22"/><ellipse cx="-40" cy="-160" rx="13" ry="9" fill="#f4ede4"/><circle cx="-46" cy="-159" r="5.5" fill="#3b2a22"/><ellipse cx="-80" cy="-158" rx="7" ry="8" fill="#f4ede4"/><circle cx="-83" cy="-157" r="4" fill="#3b2a22"/><path d="M-54 -146 Q-40 -140 -26 -146" stroke="#c9714f" stroke-width="4" fill="none" stroke-linecap="round"/><path d="M-92 -98 Q-62 -106 -34 -100 L-38 -80 Q-62 -86 -88 -78 Z" fill="#f4ede4"/><path d="M-90 -88 Q-62 -94 -36 -90" stroke="#6c2a22" stroke-width="4" fill="none"/><path d="M-76 -102 V-80 M-62 -104 V-84 M-48 -102 V-82" stroke="#cfc4b8" stroke-width="2.5"/><path d="M-30 -100 Q-30 -88 -26 -80" stroke="#c9714f" stroke-width="4" fill="none" stroke-linecap="round"/><path d="M-100 -118 Q-84 -126 -66 -120 Q-48 -128 -32 -112 Q-50 -106 -66 -110 Q-86 -104 -100 -118 Z" fill="#3b2a22"/><path d="M-84 -196 Q-90 -262 -20 -272 Q50 -276 70 -210 Q72 -186 62 -176 Q-10 -206 -84 -196 Z" fill="#c75a2e"/><path d="M20 -268 Q64 -250 70 -210 Q72 -186 62 -176 Q40 -186 22 -192 Q36 -230 20 -268 Z" fill="#a04420"/><path d="M-74 -200 Q-120 -204 -156 -186 Q-150 -176 -120 -178 Q-96 -184 -70 -186 Z" fill="#a04420"/><circle cx="-14" cy="-272" r="7" fill="#a04420"/><path d="M10 -190 Q16 -150 8 -112" stroke="#cdeaff" stroke-width="7" fill="none" stroke-linecap="round"/><path transform="translate(8 -104) rotate(0) scale(0.55)" d="M0 -22 C 9 -8 14 2 14 10 A 14 14 0 1 1 -14 10 C -14 2 -9 -8 0 -22 Z" fill="#f2fbff"/><path transform="translate(-12 -146) rotate(0) scale(0.45)" d="M0 -22 C 9 -8 14 2 14 10 A 14 14 0 1 1 -14 10 C -14 2 -9 -8 0 -22 Z" fill="#f2fbff"/><path transform="translate(-62 -132) rotate(0) scale(0.4)" d="M0 -22 C 9 -8 14 2 14 10 A 14 14 0 1 1 -14 10 C -14 2 -9 -8 0 -22 Z" fill="#f2fbff"/><path transform="translate(-100 -150) rotate(0) scale(0.4)" d="M0 -22 C 9 -8 14 2 14 10 A 14 14 0 1 1 -14 10 C -14 2 -9 -8 0 -22 Z" fill="#f2fbff"/><path transform="translate(-150 -250) rotate(-30) scale(1)" d="M0 -22 C 9 -8 14 2 14 10 A 14 14 0 1 1 -14 10 C -14 2 -9 -8 0 -22 Z" fill="#f2fbff"/><path transform="translate(-170 -150) rotate(-65) scale(0.85)" d="M0 -22 C 9 -8 14 2 14 10 A 14 14 0 1 1 -14 10 C -14 2 -9 -8 0 -22 Z" fill="#f2fbff"/><path transform="translate(-124 -320) rotate(-15) scale(0.8)" d="M0 -22 C 9 -8 14 2 14 10 A 14 14 0 1 1 -14 10 C -14 2 -9 -8 0 -22 Z" fill="#f2fbff"/><path transform="translate(100 -270) rotate(30) scale(1)" d="M0 -22 C 9 -8 14 2 14 10 A 14 14 0 1 1 -14 10 C -14 2 -9 -8 0 -22 Z" fill="#f2fbff"/><path transform="translate(118 -180) rotate(60) scale(0.8)" d="M0 -22 C 9 -8 14 2 14 10 A 14 14 0 1 1 -14 10 C -14 2 -9 -8 0 -22 Z" fill="#f2fbff"/><path transform="translate(40 -326) rotate(10) scale(0.75)" d="M0 -22 C 9 -8 14 2 14 10 A 14 14 0 1 1 -14 10 C -14 2 -9 -8 0 -22 Z" fill="#f2fbff"/></g></g><rect x="50" y="1400" width="28" height="310" fill="#4f6579"/><rect x="290" y="1400" width="28" height="310" fill="#4f6579"/><rect x="530" y="1400" width="28" height="310" fill="#4f6579"/><rect x="770" y="1400" width="28" height="310" fill="#4f6579"/><rect x="1010" y="1400" width="28" height="310" fill="#4f6579"/><rect x="-20" y="1312" width="1120" height="34" fill="#2f4356"/><rect x="-20" y="1312" width="14" height="34" fill="#3b5268" transform="skewX(-20)" transform-origin="-20 1330"/><rect x="24" y="1312" width="14" height="34" fill="#3b5268" transform="skewX(-20)" transform-origin="24 1330"/><rect x="68" y="1312" width="14" height="34" fill="#3b5268" transform="skewX(-20)" transform-origin="68 1330"/><rect x="112" y="1312" width="14" height="34" fill="#3b5268" transform="skewX(-20)" transform-origin="112 1330"/><rect x="156" y="1312" width="14" height="34" fill="#3b5268" transform="skewX(-20)" transform-origin="156 1330"/><rect x="200" y="1312" width="14" height="34" fill="#3b5268" transform="skewX(-20)" transform-origin="200 1330"/><rect x="244" y="1312" width="14" height="34" fill="#3b5268" transform="skewX(-20)" transform-origin="244 1330"/><rect x="288" y="1312" width="14" height="34" fill="#3b5268" transform="skewX(-20)" transform-origin="288 1330"/><rect x="332" y="1312" width="14" height="34" fill="#3b5268" transform="skewX(-20)" transform-origin="332 1330"/><rect x="376" y="1312" width="14" height="34" fill="#3b5268" transform="skewX(-20)" transform-origin="376 1330"/><rect x="420" y="1312" width="14" height="34" fill="#3b5268" transform="skewX(-20)" transform-origin="420 1330"/><rect x="464" y="1312" width="14" height="34" fill="#3b5268" transform="skewX(-20)" transform-origin="464 1330"/><rect x="508" y="1312" width="14" height="34" fill="#3b5268" transform="skewX(-20)" transform-origin="508 1330"/><rect x="552" y="1312" width="14" height="34" fill="#3b5268" transform="skewX(-20)" transform-origin="552 1330"/><rect x="596" y="1312" width="14" height="34" fill="#3b5268" transform="skewX(-20)" transform-origin="596 1330"/><rect x="640" y="1312" width="14" height="34" fill="#3b5268" transform="skewX(-20)" transform-origin="640 1330"/><rect x="684" y="1312" width="14" height="34" fill="#3b5268" transform="skewX(-20)" transform-origin="684 1330"/><rect x="728" y="1312" width="14" height="34" fill="#3b5268" transform="skewX(-20)" transform-origin="728 1330"/><rect x="772" y="1312" width="14" height="34" fill="#3b5268" transform="skewX(-20)" transform-origin="772 1330"/><rect x="816" y="1312" width="14" height="34" fill="#3b5268" transform="skewX(-20)" transform-origin="816 1330"/><rect x="860" y="1312" width="14" height="34" fill="#3b5268" transform="skewX(-20)" transform-origin="860 1330"/><rect x="904" y="1312" width="14" height="34" fill="#3b5268" transform="skewX(-20)" transform-origin="904 1330"/><rect x="948" y="1312" width="14" height="34" fill="#3b5268" transform="skewX(-20)" transform-origin="948 1330"/><rect x="992" y="1312" width="14" height="34" fill="#3b5268" transform="skewX(-20)" transform-origin="992 1330"/><rect x="1036" y="1312" width="14" height="34" fill="#3b5268" transform="skewX(-20)" transform-origin="1036 1330"/><rect x="1080" y="1312" width="14" height="34" fill="#3b5268" transform="skewX(-20)" transform-origin="1080 1330"/><rect x="-20" y="1344" width="1120" height="62" fill="#8ea4b7"/><rect x="-20" y="1344" width="1120" height="12" fill="#b5c6d5"/><circle cx="30" cy="1380" r="14" fill="#677e92"/><circle cx="150" cy="1380" r="14" fill="#677e92"/><circle cx="270" cy="1380" r="14" fill="#677e92"/><circle cx="390" cy="1380" r="14" fill="#677e92"/><circle cx="510" cy="1380" r="14" fill="#677e92"/><circle cx="630" cy="1380" r="14" fill="#677e92"/><circle cx="750" cy="1380" r="14" fill="#677e92"/><circle cx="870" cy="1380" r="14" fill="#677e92"/><circle cx="990" cy="1380" r="14" fill="#677e92"/><g transform="translate(600 890) scale(1.1)"><g transform="rotate(0 -175 240)"><path d="M-300 150 l38.5 -28 h250 l-38.5 28 Z" fill="#ebb757"/><path d="M-50 150 l38.5 -28 v180 l-38.5 28 Z" fill="#b9802a"/><rect x="-300" y="150" width="250" height="180" fill="#dfa13b"/><rect x="-300" y="312" width="250" height="18" fill="#b9802a" opacity=".35"/><path d="M-186.25 150 l38.5 -28 h22.5 l-38.5 28 Z" fill="#7a5532"/><rect x="-186.25" y="150" width="22.5" height="54" fill="#7a5532"/><rect x="-300" y="286.8" width="20.25" height="43.199999999999996" fill="#7a5532"/><rect x="-70.25" y="286.8" width="20.25" height="43.199999999999996" fill="#7a5532"/></g><rect x="-312" y="208" width="40" height="78" rx="18" fill="#c9714f"/><path d="M-300 230 h22 M-300 248 h22 M-300 266 h22" stroke="#a85a3e" stroke-width="3.5" stroke-linecap="round"/><path d="M96 30 Q150 50 156 150 Q150 200 120 215 L72 190 Q90 120 70 60 Z" fill="#3e6e68"/><path d="M120 200 Q104 260 30 296 L-30 310 L-36 280 L16 258 Q70 230 80 190 Z" fill="#e8956b"/><path d="M-70 334 Q-80 300 -50 284 L4 278 Q20 296 4 318 Q-30 340 -70 334 Z" fill="#e8956b"/><path d="M-40 300 L-12 296 M-46 314 L-14 310" stroke="#c9714f" stroke-width="4" stroke-linecap="round"/></g><rect x="-70" y="1278" width="80" height="8" rx="4" fill="#ffffff" opacity=".5"/><rect x="-100" y="1244.4" width="94" height="8" rx="4" fill="#ffffff" opacity=".5"/><rect x="-130" y="1210.8" width="108" height="8" rx="4" fill="#ffffff" opacity=".5"/><g transform="rotate(0 105 1264)"><path d="M30 1204 l24.750000000000004 -18 h150 l-24.750000000000004 18 Z" fill="#ebb757"/><path d="M180 1204 l24.750000000000004 -18 v120 l-24.750000000000004 18 Z" fill="#b9802a"/><rect x="30" y="1204" width="150" height="120" fill="#dfa13b"/><rect x="30" y="1312" width="150" height="12" fill="#b9802a" opacity=".35"/><path d="M98.25 1204 l24.750000000000004 -18 h13.5 l-24.750000000000004 18 Z" fill="#7a5532"/><rect x="98.25" y="1204" width="13.5" height="36" fill="#7a5532"/><rect x="30" y="1295.2" width="12.15" height="28.799999999999997" fill="#7a5532"/><rect x="167.85" y="1295.2" width="12.15" height="28.799999999999997" fill="#7a5532"/></g><rect x="140" y="1285.5" width="80" height="8" rx="4" fill="#ffffff" opacity=".5"/><rect x="110" y="1260.3" width="94" height="8" rx="4" fill="#ffffff" opacity=".5"/><g transform="rotate(-3 295 1279)"><path d="M240 1234 l18.150000000000002 -13.200000000000001 h110 l-18.150000000000002 13.200000000000001 Z" fill="#ebb757"/><path d="M350 1234 l18.150000000000002 -13.200000000000001 v90 l-18.150000000000002 13.200000000000001 Z" fill="#b9802a"/><rect x="240" y="1234" width="110" height="90" fill="#dfa13b"/><rect x="240" y="1315" width="110" height="9" fill="#b9802a" opacity=".35"/><path d="M290 1234 l18.150000000000002 -13.200000000000001 h10 l-18.150000000000002 13.200000000000001 Z" fill="#7a5532"/><rect x="290" y="1234" width="10" height="27" fill="#7a5532"/><rect x="240" y="1302.4" width="9" height="21.599999999999998" fill="#7a5532"/><rect x="341" y="1302.4" width="9" height="21.599999999999998" fill="#7a5532"/></g><g transform="rotate(2 875 1269)"><path d="M800 1214 l24.750000000000004 -18 h150 l-24.750000000000004 18 Z" fill="#ebb757"/><path d="M950 1214 l24.750000000000004 -18 v110 l-24.750000000000004 18 Z" fill="#b9802a"/><rect x="800" y="1214" width="150" height="110" fill="#dfa13b"/><rect x="800" y="1313" width="150" height="11" fill="#b9802a" opacity=".35"/><path d="M868.25 1214 l24.750000000000004 -18 h13.5 l-24.750000000000004 18 Z" fill="#7a5532"/><rect x="868.25" y="1214" width="13.5" height="33" fill="#7a5532"/><rect x="800" y="1297.6" width="12.15" height="26.4" fill="#7a5532"/><rect x="937.85" y="1297.6" width="12.15" height="26.4" fill="#7a5532"/></g><g transform="rotate(-4 1005 1264)"><path d="M950 1204 l18.150000000000002 -13.200000000000001 h110 l-18.150000000000002 13.200000000000001 Z" fill="#ebb757"/><path d="M1060 1204 l18.150000000000002 -13.200000000000001 v120 l-18.150000000000002 13.200000000000001 Z" fill="#b9802a"/><rect x="950" y="1204" width="110" height="120" fill="#dfa13b"/><rect x="950" y="1312" width="110" height="12" fill="#b9802a" opacity=".35"/><path d="M1000 1204 l18.150000000000002 -13.200000000000001 h10 l-18.150000000000002 13.200000000000001 Z" fill="#7a5532"/><rect x="1000" y="1204" width="10" height="36" fill="#7a5532"/><rect x="950" y="1295.2" width="9" height="28.799999999999997" fill="#7a5532"/><rect x="1051" y="1295.2" width="9" height="28.799999999999997" fill="#7a5532"/></g><g transform="rotate(-8 890 1160)"><path d="M830 1110 l19.8 -14.4 h120 l-19.8 14.4 Z" fill="#ebb757"/><path d="M950 1110 l19.8 -14.4 v100 l-19.8 14.4 Z" fill="#b9802a"/><rect x="830" y="1110" width="120" height="100" fill="#dfa13b"/><rect x="830" y="1200" width="120" height="10" fill="#b9802a" opacity=".35"/><path d="M884.6 1110 l19.8 -14.4 h10.799999999999999 l-19.8 14.4 Z" fill="#7a5532"/><rect x="884.6" y="1110" width="10.799999999999999" height="30" fill="#7a5532"/><rect x="830" y="1186" width="9.719999999999999" height="24" fill="#7a5532"/><rect x="940.28" y="1186" width="9.719999999999999" height="24" fill="#7a5532"/></g><g transform="rotate(12 1010 1155)"><path d="M960 1115 l16.5 -12 h100 l-16.5 12 Z" fill="#ebb757"/><path d="M1060 1115 l16.5 -12 v80 l-16.5 12 Z" fill="#b9802a"/><rect x="960" y="1115" width="100" height="80" fill="#dfa13b"/><rect x="960" y="1187" width="100" height="8" fill="#b9802a" opacity=".35"/><path d="M1005 1115 l16.5 -12 h10 l-16.5 12 Z" fill="#7a5532"/><rect x="1005" y="1115" width="10" height="24" fill="#7a5532"/><rect x="960" y="1175.8" width="9" height="19.2" fill="#7a5532"/><rect x="1051" y="1175.8" width="9" height="19.2" fill="#7a5532"/></g><g transform="rotate(30 1060 1480)"><path d="M1000 1430 l19.8 -14.4 h120 l-19.8 14.4 Z" fill="#ebb757"/><path d="M1120 1430 l19.8 -14.4 v100 l-19.8 14.4 Z" fill="#b9802a"/><rect x="1000" y="1430" width="120" height="100" fill="#dfa13b"/><rect x="1000" y="1520" width="120" height="10" fill="#b9802a" opacity=".35"/><path d="M1054.6 1430 l19.8 -14.4 h10.799999999999999 l-19.8 14.4 Z" fill="#7a5532"/><rect x="1054.6" y="1430" width="10.799999999999999" height="30" fill="#7a5532"/><rect x="1000" y="1506" width="9.719999999999999" height="24" fill="#7a5532"/><rect x="1110.28" y="1506" width="9.719999999999999" height="24" fill="#7a5532"/></g><g transform="rotate(-6 160 1815)"><path d="M70 1750 l29.700000000000003 -21.6 h180 l-29.700000000000003 21.6 Z" fill="#ebb757"/><path d="M250 1750 l29.700000000000003 -21.6 v130 l-29.700000000000003 21.6 Z" fill="#b9802a"/><rect x="70" y="1750" width="180" height="130" fill="#dfa13b"/><rect x="70" y="1867" width="180" height="13" fill="#b9802a" opacity=".35"/><path d="M151.9 1750 l29.700000000000003 -21.6 h16.2 l-29.700000000000003 21.6 Z" fill="#7a5532"/><rect x="151.9" y="1750" width="16.2" height="39" fill="#7a5532"/><rect x="70" y="1848.8" width="14.58" height="31.2" fill="#7a5532"/><rect x="235.42" y="1848.8" width="14.58" height="31.2" fill="#7a5532"/></g><g transform="rotate(5 905 1820)"><path d="M820 1760 l28.05 -20.400000000000002 h170 l-28.05 20.400000000000002 Z" fill="#ebb757"/><path d="M990 1760 l28.05 -20.400000000000002 v120 l-28.05 20.400000000000002 Z" fill="#b9802a"/><rect x="820" y="1760" width="170" height="120" fill="#dfa13b"/><rect x="820" y="1868" width="170" height="12" fill="#b9802a" opacity=".35"/><path d="M897.35 1760 l28.05 -20.400000000000002 h15.299999999999999 l-28.05 20.400000000000002 Z" fill="#7a5532"/><rect x="897.35" y="1760" width="15.299999999999999" height="36" fill="#7a5532"/><rect x="820" y="1851.2" width="13.77" height="28.799999999999997" fill="#7a5532"/><rect x="976.23" y="1851.2" width="13.77" height="28.799999999999997" fill="#7a5532"/></g><rect width="1080" height="1920" fill="url(#vignette)"/><rect width="1080" height="1920" filter="url(#grain)" opacity="0.16" style="mix-blend-mode:multiply"/></svg>