<svg xmlns="http://www.w3.org/2000/svg" width="1080" height="1920" viewBox="0 0 1080 1920"><defs>
    <linearGradient id="bg" x1="0" y1="0" x2="0" y2="1"><stop offset="0" stop-color="#0e1626"/><stop offset=".55" stop-color="#22324d"/><stop offset="1" stop-color="#2b3a55"/></linearGradient>
    <linearGradient id="floor" x1="0" y1="0" x2="0" y2="1"><stop offset="0" stop-color="#3d4659"/><stop offset="1" stop-color="#1c2230"/></linearGradient>
    <linearGradient id="beam" x1="0" y1="0" x2="0" y2="1"><stop offset="0" stop-color="#ffe9a8" stop-opacity=".55"/><stop offset="1" stop-color="#ffe9a8" stop-opacity="0"/></linearGradient>
    <radialGradient id="glow" cx=".5" cy=".42" r=".5"><stop offset="0" stop-color="#ffb347" stop-opacity=".45"/><stop offset="1" stop-color="#ffb347" stop-opacity="0"/></radialGradient>
  </defs><rect width="1080" height="1920" fill="url(#bg)"/><path d="M-40 0 L50 110 L140 0" fill="none" stroke="#33415c" stroke-width="10"/><path d="M140 0 L230 110 L320 0" fill="none" stroke="#33415c" stroke-width="10"/><path d="M320 0 L410 110 L500 0" fill="none" stroke="#33415c" stroke-width="10"/><path d="M500 0 L590 110 L680 0" fill="none" stroke="#33415c" stroke-width="10"/><path d="M680 0 L770 110 L860 0" fill="none" stroke="#33415c" stroke-width="10"/><path d="M860 0 L950 110 L1040 0" fill="none" stroke="#33415c" stroke-width="10"/><path d="M1040 0 L1130 110 L1220 0" fill="none" stroke="#33415c" stroke-width="10"/><rect x="0" y="105" width="1080" height="16" fill="#33415c"/><rect x="30" y="640" width="210" height="440" fill="#141c2b" stroke="#3c4a66" stroke-width="8"/><path d="M36 660 H234" stroke="#2d3a52" stroke-width="5"/><path d="M36 682 H234" stroke="#2d3a52" stroke-width="5"/><path d="M36 704 H234" stroke="#2d3a52" stroke-width="5"/><path d="M36 726 H234" stroke="#2d3a52" stroke-width="5"/><path d="M36 748 H234" stroke="#2d3a52" stroke-width="5"/><path d="M36 770 H234" stroke="#2d3a52" stroke-width="5"/><path d="M36 792 H234" stroke="#2d3a52" stroke-width="5"/><path d="M36 814 H234" stroke="#2d3a52" stroke-width="5"/><rect x="100" y="600" width="70" height="34" rx="4" fill="#ffd166"/><text x="135" y="626" font-family="Liberation Sans, sans-serif" font-weight="700" font-size="26" text-anchor="middle" fill="#1d1b26">12</text><rect x="300" y="640" width="210" height="440" fill="#141c2b" stroke="#3c4a66" stroke-width="8"/><path d="M306 660 H504" stroke="#2d3a52" stroke-width="5"/><path d="M306 682 H504" stroke="#2d3a52" stroke-width="5"/><path d="M306 704 H504" stroke="#2d3a52" stroke-width="5"/><path d="M306 726 H504" stroke="#2d3a52" stroke-width="5"/><path d="M306 748 H504" stroke="#2d3a52" stroke-width="5"/><path d="M306 770 H504" stroke="#2d3a52" stroke-width="5"/><path d="M306 792 H504" stroke="#2d3a52" stroke-width="5"/><path d="M306 814 H504" stroke="#2d3a52" stroke-width="5"/><rect x="370" y="600" width="70" height="34" rx="4" fill="#ffd166"/><text x="405" y="626" font-family="Liberation Sans, sans-serif" font-weight="700" font-size="26" text-anchor="middle" fill="#1d1b26">13</text><rect x="570" y="640" width="210" height="440" fill="#141c2b" stroke="#3c4a66" stroke-width="8"/><path d="M576 660 H774" stroke="#2d3a52" stroke-width="5"/><path d="M576 682 H774" stroke="#2d3a52" stroke-width="5"/><path d="M576 704 H774" stroke="#2d3a52" stroke-width="5"/><path d="M576 726 H774" stroke="#2d3a52" stroke-width="5"/><path d="M576 748 H774" stroke="#2d3a52" stroke-width="5"/><path d="M576 770 H774" stroke="#2d3a52" stroke-width="5"/><path d="M576 792 H774" stroke="#2d3a52" stroke-width="5"/><path d="M576 814 H774" stroke="#2d3a52" stroke-width="5"/><rect x="640" y="600" width="70" height="34" rx="4" fill="#ffd166"/><text x="675" y="626" font-family="Liberation Sans, sans-serif" font-weight="700" font-size="26" text-anchor="middle" fill="#1d1b26">14</text><rect x="840" y="640" width="210" height="440" fill="#141c2b" stroke="#3c4a66" stroke-width="8"/><path d="M846 660 H1044" stroke="#2d3a52" stroke-width="5"/><path d="M846 682 H1044" stroke="#2d3a52" stroke-width="5"/><path d="M846 704 H1044" stroke="#2d3a52" stroke-width="5"/><path d="M846 726 H1044" stroke="#2d3a52" stroke-width="5"/><path d="M846 748 H1044" stroke="#2d3a52" stroke-width="5"/><path d="M846 770 H1044" stroke="#2d3a52" stroke-width="5"/><path d="M846 792 H1044" stroke="#2d3a52" stroke-width="5"/><path d="M846 814 H1044" stroke="#2d3a52" stroke-width="5"/><rect x="910" y="600" width="70" height="34" rx="4" fill="#ffd166"/><text x="945" y="626" font-family="Liberation Sans, sans-serif" font-weight="700" font-size="26" text-anchor="middle" fill="#1d1b26">15</text><circle cx="900" cy="470" r="62" fill="#f4f1e8" stroke="#3c4a66" stroke-width="10"/><path d="M900 422 L900 414" stroke="#1d1b26" stroke-width="4"/><path d="M924 428.43078061834694 L928 421.5025773880714" stroke="#1d1b26" stroke-width="4"/><path d="M941.569219381653 446 L948.4974226119285 442" stroke="#1d1b26" stroke-width="4"/><path d="M948 470 L956 470" stroke="#1d1b26" stroke-width="4"/><path d="M941.569219381653 494 L948.4974226119285 498" stroke="#1d1b26" stroke-width="4"/><path d="M924 511.56921938165306 L928 518.4974226119285" stroke="#1d1b26" stroke-width="4"/><path d="M900 518 L900 526" stroke="#1d1b26" stroke-width="4"/><path d="M876 511.56921938165306 L872 518.4974226119285" stroke="#1d1b26" stroke-width="4"/><path d="M858.430780618347 494 L851.5025773880715 498" stroke="#1d1b26" stroke-width="4"/><path d="M852 470 L844 470" stroke="#1d1b26" stroke-width="4"/><path d="M858.430780618347 446 L851.5025773880715 442" stroke="#1d1b26" stroke-width="4"/><path d="M876 428.43078061834694 L872 421.5025773880715" stroke="#1d1b26" stroke-width="4"/><path d="M900 470 L925.9807621135332 485" stroke="#1d1b26" stroke-width="8" stroke-linecap="round"/><path d="M900 470 V424" stroke="#1d1b26" stroke-width="5" stroke-linecap="round"/><circle cx="900" cy="470" r="6" fill="#d62828"/><rect x="20" y="1130" width="140" height="110" fill="#5b4a3a" stroke="#2a2a35" stroke-width="5" opacity=".75"/><rect x="40" y="1030" width="110" height="100" fill="#5b4a3a" stroke="#2a2a35" stroke-width="5" opacity=".75"/><rect x="890" y="1140" width="170" height="120" fill="#5b4a3a" stroke="#2a2a35" stroke-width="5" opacity=".75"/><rect x="920" y="1040" width="120" height="100" fill="#5b4a3a" stroke="#2a2a35" stroke-width="5" opacity=".75"/><rect x="180" y="1170" width="90" height="70" fill="#5b4a3a" stroke="#2a2a35" stroke-width="5" opacity=".75"/><path d="M-50 1250 L140 230 L220 230 L410 1250 Z" fill="url(#beam)" opacity=".45"/><path d="M180 120 V200" stroke="#33415c" stroke-width="6"/><path d="M130 232 Q180 180 230 232 Z" fill="#4a5568" stroke="#1d1b26" stroke-width="5"/><ellipse cx="180" cy="234" rx="38" ry="9" fill="#fff6c9"/><path d="M310 1250 L500 230 L580 230 L770 1250 Z" fill="url(#beam)" opacity=".45"/><path d="M540 120 V200" stroke="#33415c" stroke-width="6"/><path d="M490 232 Q540 180 590 232 Z" fill="#4a5568" stroke="#1d1b26" stroke-width="5"/><ellipse cx="540" cy="234" rx="38" ry="9" fill="#fff6c9"/><path d="M670 1250 L860 230 L940 230 L1130 1250 Z" fill="url(#beam)" opacity=".45"/><path d="M900 120 V200" stroke="#33415c" stroke-width="6"/><path d="M850 232 Q900 180 950 232 Z" fill="#4a5568" stroke="#1d1b26" stroke-width="5"/><ellipse cx="900" cy="234" rx="38" ry="9" fill="#fff6c9"/><ellipse cx="540" cy="900" rx="560" ry="560" fill="url(#glow)"/><rect x="0" y="1440" width="1080" height="480" fill="url(#floor)"/><path d="M0 1440 H1080" stroke="#1c2230" stroke-width="6"/><rect x="0" y="1680" width="1080" height="36" fill="#ffd166"/><path d="M-40 1716 L-4 1680 L26 1680 L-10 1716 Z" fill="#1d1b26"/><path d="M30 1716 L66 1680 L96 1680 L60 1716 Z" fill="#1d1b26"/><path d="M100 1716 L136 1680 L166 1680 L130 1716 Z" fill="#1d1b26"/><path d="M170 1716 L206 1680 L236 1680 L200 1716 Z" fill="#1d1b26"/><path d="M240 1716 L276 1680 L306 1680 L270 1716 Z" fill="#1d1b26"/><path d="M310 1716 L346 1680 L376 1680 L340 1716 Z" fill="#1d1b26"/><path d="M380 1716 L416 1680 L446 1680 L410 1716 Z" fill="#1d1b26"/><path d="M450 1716 L486 1680 L516 1680 L480 1716 Z" fill="#1d1b26"/><path d="M520 1716 L556 1680 L586 1680 L550 1716 Z" fill="#1d1b26"/><path d="M590 1716 L626 1680 L656 1680 L620 1716 Z" fill="#1d1b26"/><path d="M660 1716 L696 1680 L726 1680 L690 1716 Z" fill="#1d1b26"/><path d="M730 1716 L766 1680 L796 1680 L760 1716 Z" fill="#1d1b26"/><path d="M800 1716 L836 1680 L866 1680 L830 1716 Z" fill="#1d1b26"/><path d="M870 1716 L906 1680 L936 1680 L900 1716 Z" fill="#1d1b26"/><path d="M940 1716 L976 1680 L1006 1680 L970 1716 Z" fill="#1d1b26"/><path d="M1010 1716 L1046 1680 L1076 1680 L1040 1716 Z" fill="#1d1b26"/><path d="M1080 1716 L1116 1680 L1146 1680 L1110 1716 Z" fill="#1d1b26"/><ellipse cx="560" cy="1630" rx="260" ry="40" fill="#000" opacity=".3"/><g transform="translate(560 740) scale(1.22)"><g><path d="M-150 175 Q-160 130 -105 112 L105 112 Q160 130 150 175 L172 560 L-172 560 Z" fill="#2f6fb3" stroke="#1d1b26" stroke-width="6" stroke-linejoin="round"/><ellipse cx="-128" cy="215" rx="26" ry="42" fill="#24568f"/><ellipse cx="128" cy="215" rx="26" ry="42" fill="#24568f"/><ellipse cx="0" cy="160" rx="40" ry="28" fill="#24568f"/><path d="M-108 116 L-40 116 L-8 260 L-8 560 L-150 560 L-140 190 Q-145 140 -108 116 Z" fill="#ffb703" stroke="#1d1b26" stroke-width="5" stroke-linejoin="round"/><path d="M108 116 L40 116 L8 260 L8 560 L150 560 L140 190 Q145 140 108 116 Z" fill="#ffb703" stroke="#1d1b26" stroke-width="5" stroke-linejoin="round"/><rect x="-148" y="430" width="140" height="26" fill="#e8eef5" stroke="#1d1b26" stroke-width="3"/><rect x="8" y="430" width="140" height="26" fill="#e8eef5" stroke="#1d1b26" stroke-width="3"/><path d="M-96 125 L-30 125 L-22 160 L-103 160 Z" fill="#e8eef5" stroke="#1d1b26" stroke-width="3"/><path d="M96 125 L30 125 L22 160 L103 160 Z" fill="#e8eef5" stroke="#1d1b26" stroke-width="3"/><path d="M-42 70 L-42 125 Q0 150 42 125 L42 70 Z" fill="#d9875a" stroke="#1d1b26" stroke-width="5"/><path d="M-20 540 L-150 540 L-140 705 L-40 705 Z" fill="#2b3550" stroke="#1d1b26" stroke-width="6" stroke-linejoin="round"/><path d="M-30 700 L-150 700 Q-185 705 -185 745 L-30 745 Z" fill="#5a3b24" stroke="#1d1b26" stroke-width="6" stroke-linejoin="round"/><path d="M20 540 L150 540 L140 705 L40 705 Z" fill="#2b3550" stroke="#1d1b26" stroke-width="6" stroke-linejoin="round"/><path d="M30 700 L150 700 Q185 705 185 745 L30 745 Z" fill="#5a3b24" stroke="#1d1b26" stroke-width="6" stroke-linejoin="round"/><path d="M-135 150 Q-210 190 -215 270" fill="none" stroke="#1d1b26" stroke-width="82" stroke-linecap="round"/><path d="M-135 150 Q-210 190 -215 270" fill="none" stroke="#2f6fb3" stroke-width="70" stroke-linecap="round"/><path d="M-182 240 Q-215 252 -248 240" fill="none" stroke="#1f4f85" stroke-width="10" stroke-linecap="round"/><path d="M-218 285 Q-225 330 -165 300" fill="none" stroke="#1d1b26" stroke-width="64" stroke-linecap="round"/><path d="M-218 285 Q-225 330 -165 300" fill="none" stroke="#f0a97c" stroke-width="52" stroke-linecap="round"/><path d="M135 150 Q210 190 215 270" fill="none" stroke="#1d1b26" stroke-width="82" stroke-linecap="round"/><path d="M135 150 Q210 190 215 270" fill="none" stroke="#2f6fb3" stroke-width="70" stroke-linecap="round"/><path d="M182 240 Q215 252 248 240" fill="none" stroke="#1f4f85" stroke-width="10" stroke-linecap="round"/><path d="M218 285 Q225 330 165 300" fill="none" stroke="#1d1b26" stroke-width="64" stroke-linecap="round"/><path d="M218 285 Q225 330 165 300" fill="none" stroke="#f0a97c" stroke-width="52" stroke-linecap="round"/><g transform="rotate(0 0 275)"><path d="M-150 175 L-112.5 141.25 L187.5 141.25 L150 175 Z" fill="#dcaa6c" stroke="#1d1b26" stroke-width="4" stroke-linejoin="round"/><path d="M150 175 L187.5 141.25 L187.5 341.25 L150 375 Z" fill="#a8733a" stroke="#1d1b26" stroke-width="4" stroke-linejoin="round"/><rect x="-150" y="175" width="300" height="200" fill="#c98f4f" stroke="#1d1b26" stroke-width="4" stroke-linejoin="round"/><path d="M-21.000000000000004 175 L16.499999999999996 141.25 L58.5 141.25 L21.000000000000004 175 Z" fill="#e9c88f" opacity=".9"/><rect x="-21.000000000000004" y="177" width="42.00000000000001" height="64" fill="#e9c88f" opacity=".9"/><rect x="-126" y="291" width="126" height="60" rx="3" fill="#fbfbf6" stroke="#1d1b26" stroke-width="2.5"/><rect x="-113.4" y="318" width="7.56" height="24" fill="#1d1b26"/><rect x="-98.91000000000001" y="318" width="3.78" height="24" fill="#1d1b26"/><rect x="-84.42" y="318" width="3.78" height="24" fill="#1d1b26"/><rect x="-69.93" y="318" width="7.56" height="24" fill="#1d1b26"/><rect x="-55.440000000000005" y="318" width="3.78" height="24" fill="#1d1b26"/><rect x="-40.95" y="318" width="3.78" height="24" fill="#1d1b26"/><rect x="-26.460000000000008" y="318" width="7.56" height="24" fill="#1d1b26"/><rect x="-113.4" y="300" width="75.6" height="7.199999999999999" fill="#1d1b26" opacity=".6"/><path d="M36 295.8 V251 M16.8 270.2 L36 251 L55.2 270.2" fill="none" stroke="#9d1c1c" stroke-width="8.96" stroke-linecap="round" stroke-linejoin="round"/><path d="M71.2 295.8 V251 M52 270.2 L71.2 251 L90.4 270.2" fill="none" stroke="#9d1c1c" stroke-width="8.96" stroke-linecap="round" stroke-linejoin="round"/></g><ellipse cx="-150" cy="285" rx="34" ry="44" fill="#f0a97c" stroke="#1d1b26" stroke-width="5"/><path d="M-125 265 h18 M-125 287 h20 M-125 309 h16" stroke="#1d1b26" stroke-width="4" stroke-linecap="round"/><ellipse cx="150" cy="285" rx="34" ry="44" fill="#f0a97c" stroke="#1d1b26" stroke-width="5"/><path d="M125 265 h-18 M125 287 h-20 M125 309 h-16" stroke="#1d1b26" stroke-width="4" stroke-linecap="round"/><circle cx="-106" cy="12" r="26" fill="#f0a97c" stroke="#1d1b26" stroke-width="5"/><circle cx="106" cy="12" r="26" fill="#f0a97c" stroke="#1d1b26" stroke-width="5"/><ellipse cx="0" cy="0" rx="106" ry="112" fill="#f0a97c" stroke="#1d1b26" stroke-width="6"/><ellipse cx="-58" cy="48" rx="28" ry="17" fill="#ff4d4d" opacity=".45"/><ellipse cx="58" cy="48" rx="28" ry="17" fill="#ff4d4d" opacity=".45"/><ellipse cx="0" cy="-48" rx="70" ry="24" fill="#ff4d4d" opacity=".18"/><path d="M-80 60 Q0 140 80 60 Q60 112 0 112 Q-60 112 -80 60 Z" fill="#6b4a3a" opacity=".18"/><path d="M-104 -30 Q-108 -128 0 -132 Q108 -128 104 -30 Q0 -58 -104 -30 Z" fill="#d62828" stroke="#1d1b26" stroke-width="6" stroke-linejoin="round"/><path d="M-40 -42 Q0 -52 40 -42" fill="none" stroke="#9d1c1c" stroke-width="8" stroke-linecap="round"/><path d="M-75 -110 Q-55 -125 -30 -128" fill="none" stroke="#fff" stroke-width="7" stroke-linecap="round" opacity=".45"/><circle cx="0" cy="-132" r="9" fill="#9d1c1c" stroke="#1d1b26" stroke-width="4"/><path d="M-38 -24 Q0 -32 38 -24" fill="none" stroke="#d9875a" stroke-width="5" stroke-linecap="round"/><path d="M-78 -2 L-20 -22" stroke="#1d1b26" stroke-width="13" stroke-linecap="round"/><path d="M78 -2 L20 -22" stroke="#1d1b26" stroke-width="13" stroke-linecap="round"/><ellipse cx="-42" cy="22" rx="24" ry="27" fill="#fff" stroke="#1d1b26" stroke-width="5"/><circle cx="-51" cy="24" r="9" fill="#1d1b26"/><circle cx="-54" cy="20" r="3" fill="#fff"/><path d="M-62 54 Q-42 62 -22 54" fill="none" stroke="#d9875a" stroke-width="5" stroke-linecap="round"/><ellipse cx="42" cy="22" rx="24" ry="27" fill="#fff" stroke="#1d1b26" stroke-width="5"/><circle cx="33" cy="24" r="9" fill="#1d1b26"/><circle cx="30" cy="20" r="3" fill="#fff"/><path d="M22 54 Q42 62 62 54" fill="none" stroke="#d9875a" stroke-width="5" stroke-linecap="round"/><path d="M-6 30 Q-18 62 0 66 Q16 66 14 56" fill="#d9875a" stroke="#1d1b26" stroke-width="5" stroke-linejoin="round" stroke-linecap="round"/><rect x="-42" y="76" width="84" height="32" rx="12" fill="#fff" stroke="#1d1b26" stroke-width="5"/><path d="M-40 92 H40 M-21 78 V106 M0 78 V106 M21 78 V106" stroke="#1d1b26" stroke-width="3.5"/><path d="M-88 -20 Q-92 10 -86 40" fill="none" stroke="#8fdcff" stroke-width="7" stroke-linecap="round"/><path transform="translate(-86 46) rotate(0) scale(0.7)" d="M0 -20 C 9 -7 13 2 13 9 A 13 13 0 1 1 -13 9 C -13 2 -9 -7 0 -20 Z" fill="#8fdcff" stroke="#2a7fbf" stroke-width="3"/><ellipse transform="translate(-86 46) rotate(0) scale(0.7)" cx="-4" cy="6" rx="3" ry="5" fill="#fff" opacity=".8"/><path d="M90 -18 Q94 6 88 28" fill="none" stroke="#8fdcff" stroke-width="7" stroke-linecap="round"/><path transform="translate(88 34) rotate(0) scale(0.6)" d="M0 -20 C 9 -7 13 2 13 9 A 13 13 0 1 1 -13 9 C -13 2 -9 -7 0 -20 Z" fill="#8fdcff" stroke="#2a7fbf" stroke-width="3"/><ellipse transform="translate(88 34) rotate(0) scale(0.6)" cx="-4" cy="6" rx="3" ry="5" fill="#fff" opacity=".8"/><path transform="translate(-30 -10) rotate(0) scale(0.55)" d="M0 -20 C 9 -7 13 2 13 9 A 13 13 0 1 1 -13 9 C -13 2 -9 -7 0 -20 Z" fill="#8fdcff" stroke="#2a7fbf" stroke-width="3"/><ellipse transform="translate(-30 -10) rotate(0) scale(0.55)" cx="-4" cy="6" rx="3" ry="5" fill="#fff" opacity=".8"/><path transform="translate(36 -14) rotate(0) scale(0.5)" d="M0 -20 C 9 -7 13 2 13 9 A 13 13 0 1 1 -13 9 C -13 2 -9 -7 0 -20 Z" fill="#8fdcff" stroke="#2a7fbf" stroke-width="3"/><ellipse transform="translate(36 -14) rotate(0) scale(0.5)" cx="-4" cy="6" rx="3" ry="5" fill="#fff" opacity=".8"/><path transform="translate(-150 -70) rotate(-40) scale(1.1)" d="M0 -20 C 9 -7 13 2 13 9 A 13 13 0 1 1 -13 9 C -13 2 -9 -7 0 -20 Z" fill="#8fdcff" stroke="#2a7fbf" stroke-width="3"/><ellipse transform="translate(-150 -70) rotate(-40) scale(1.1)" cx="-4" cy="6" rx="3" ry="5" fill="#fff" opacity=".8"/><path transform="translate(-175 5) rotate(-70) scale(0.9)" d="M0 -20 C 9 -7 13 2 13 9 A 13 13 0 1 1 -13 9 C -13 2 -9 -7 0 -20 Z" fill="#8fdcff" stroke="#2a7fbf" stroke-width="3"/><ellipse transform="translate(-175 5) rotate(-70) scale(0.9)" cx="-4" cy="6" rx="3" ry="5" fill="#fff" opacity=".8"/><path transform="translate(-140 -135) rotate(-25) scale(0.8)" d="M0 -20 C 9 -7 13 2 13 9 A 13 13 0 1 1 -13 9 C -13 2 -9 -7 0 -20 Z" fill="#8fdcff" stroke="#2a7fbf" stroke-width="3"/><ellipse transform="translate(-140 -135) rotate(-25) scale(0.8)" cx="-4" cy="6" rx="3" ry="5" fill="#fff" opacity=".8"/><path transform="translate(150 -70) rotate(40) scale(1.1)" d="M0 -20 C 9 -7 13 2 13 9 A 13 13 0 1 1 -13 9 C -13 2 -9 -7 0 -20 Z" fill="#8fdcff" stroke="#2a7fbf" stroke-width="3"/><ellipse transform="translate(150 -70) rotate(40) scale(1.1)" cx="-4" cy="6" rx="3" ry="5" fill="#fff" opacity=".8"/><path transform="translate(178 5) rotate(70) scale(0.9)" d="M0 -20 C 9 -7 13 2 13 9 A 13 13 0 1 1 -13 9 C -13 2 -9 -7 0 -20 Z" fill="#8fdcff" stroke="#2a7fbf" stroke-width="3"/><ellipse transform="translate(178 5) rotate(70) scale(0.9)" cx="-4" cy="6" rx="3" ry="5" fill="#fff" opacity=".8"/><path transform="translate(140 -138) rotate(25) scale(0.8)" d="M0 -20 C 9 -7 13 2 13 9 A 13 13 0 1 1 -13 9 C -13 2 -9 -7 0 -20 Z" fill="#8fdcff" stroke="#2a7fbf" stroke-width="3"/><ellipse transform="translate(140 -138) rotate(25) scale(0.8)" cx="-4" cy="6" rx="3" ry="5" fill="#fff" opacity=".8"/><path transform="translate(-55 -170) rotate(-10) scale(0.75)" d="M0 -20 C 9 -7 13 2 13 9 A 13 13 0 1 1 -13 9 C -13 2 -9 -7 0 -20 Z" fill="#8fdcff" stroke="#2a7fbf" stroke-width="3"/><ellipse transform="translate(-55 -170) rotate(-10) scale(0.75)" cx="-4" cy="6" rx="3" ry="5" fill="#fff" opacity=".8"/><path transform="translate(60 -172) rotate(10) scale(0.75)" d="M0 -20 C 9 -7 13 2 13 9 A 13 13 0 1 1 -13 9 C -13 2 -9 -7 0 -20 Z" fill="#8fdcff" stroke="#2a7fbf" stroke-width="3"/><ellipse transform="translate(60 -172) rotate(10) scale(0.75)" cx="-4" cy="6" rx="3" ry="5" fill="#fff" opacity=".8"/><path d="M-200 -110 L-235 -135" stroke="#fff" stroke-width="8" stroke-linecap="round" opacity=".85"/><path d="M-215 -40 L-255 -45" stroke="#fff" stroke-width="8" stroke-linecap="round" opacity=".85"/><path d="M200 -110 L235 -135" stroke="#fff" stroke-width="8" stroke-linecap="round" opacity=".85"/><path d="M215 -40 L255 -45" stroke="#fff" stroke-width="8" stroke-linecap="round" opacity=".85"/></g></g><rect x="60" y="1370" width="34" height="270" fill="#4a5568" stroke="#1d1b26" stroke-width="5"/><rect x="50" y="1626" width="54" height="14" fill="#2d3748" stroke="#1d1b26" stroke-width="4"/><rect x="320" y="1370" width="34" height="270" fill="#4a5568" stroke="#1d1b26" stroke-width="5"/><rect x="310" y="1626" width="54" height="14" fill="#2d3748" stroke="#1d1b26" stroke-width="4"/><rect x="580" y="1370" width="34" height="270" fill="#4a5568" stroke="#1d1b26" stroke-width="5"/><rect x="570" y="1626" width="54" height="14" fill="#2d3748" stroke="#1d1b26" stroke-width="4"/><rect x="840" y="1370" width="34" height="270" fill="#4a5568" stroke="#1d1b26" stroke-width="5"/><rect x="830" y="1626" width="54" height="14" fill="#2d3748" stroke="#1d1b26" stroke-width="4"/><rect x="-20" y="1340" width="1120" height="16" fill="#2d3748"/><rect x="-20" y="1248" width="1120" height="40" fill="#25272e" stroke="#1d1b26" stroke-width="5"/><path d="M-10 1250 L-22 1286" stroke="#3b3f4a" stroke-width="5"/><path d="M36 1250 L24 1286" stroke="#3b3f4a" stroke-width="5"/><path d="M82 1250 L70 1286" stroke="#3b3f4a" stroke-width="5"/><path d="M128 1250 L116 1286" stroke="#3b3f4a" stroke-width="5"/><path d="M174 1250 L162 1286" stroke="#3b3f4a" stroke-width="5"/><path d="M220 1250 L208 1286" stroke="#3b3f4a" stroke-width="5"/><path d="M266 1250 L254 1286" stroke="#3b3f4a" stroke-width="5"/><path d="M312 1250 L300 1286" stroke="#3b3f4a" stroke-width="5"/><path d="M358 1250 L346 1286" stroke="#3b3f4a" stroke-width="5"/><path d="M404 1250 L392 1286" stroke="#3b3f4a" stroke-width="5"/><path d="M450 1250 L438 1286" stroke="#3b3f4a" stroke-width="5"/><path d="M496 1250 L484 1286" stroke="#3b3f4a" stroke-width="5"/><path d="M542 1250 L530 1286" stroke="#3b3f4a" stroke-width="5"/><path d="M588 1250 L576 1286" stroke="#3b3f4a" stroke-width="5"/><path d="M634 1250 L622 1286" stroke="#3b3f4a" stroke-width="5"/><path d="M680 1250 L668 1286" stroke="#3b3f4a" stroke-width="5"/><path d="M726 1250 L714 1286" stroke="#3b3f4a" stroke-width="5"/><path d="M772 1250 L760 1286" stroke="#3b3f4a" stroke-width="5"/><path d="M818 1250 L806 1286" stroke="#3b3f4a" stroke-width="5"/><path d="M864 1250 L852 1286" stroke="#3b3f4a" stroke-width="5"/><path d="M910 1250 L898 1286" stroke="#3b3f4a" stroke-width="5"/><path d="M956 1250 L944 1286" stroke="#3b3f4a" stroke-width="5"/><path d="M1002 1250 L990 1286" stroke="#3b3f4a" stroke-width="5"/><path d="M1048 1250 L1036 1286" stroke="#3b3f4a" stroke-width="5"/><path d="M1094 1250 L1082 1286" stroke="#3b3f4a" stroke-width="5"/><rect x="-20" y="1284" width="1120" height="62" rx="6" fill="#9aa5b8" stroke="#1d1b26" stroke-width="6"/><rect x="-20" y="1290" width="1120" height="10" fill="#c5cfdd"/><circle cx="20" cy="1316" r="17" fill="#5d6778" stroke="#1d1b26" stroke-width="4"/><circle cx="20" cy="1316" r="5" fill="#1d1b26"/><circle cx="140" cy="1316" r="17" fill="#5d6778" stroke="#1d1b26" stroke-width="4"/><circle cx="140" cy="1316" r="5" fill="#1d1b26"/><circle cx="260" cy="1316" r="17" fill="#5d6778" stroke="#1d1b26" stroke-width="4"/><circle cx="260" cy="1316" r="5" fill="#1d1b26"/><circle cx="380" cy="1316" r="17" fill="#5d6778" stroke="#1d1b26" stroke-width="4"/><circle cx="380" cy="1316" r="5" fill="#1d1b26"/><circle cx="500" cy="1316" r="17" fill="#5d6778" stroke="#1d1b26" stroke-width="4"/><circle cx="500" cy="1316" r="5" fill="#1d1b26"/><circle cx="620" cy="1316" r="17" fill="#5d6778" stroke="#1d1b26" stroke-width="4"/><circle cx="620" cy="1316" r="5" fill="#1d1b26"/><circle cx="740" cy="1316" r="17" fill="#5d6778" stroke="#1d1b26" stroke-width="4"/><circle cx="740" cy="1316" r="5" fill="#1d1b26"/><circle cx="860" cy="1316" r="17" fill="#5d6778" stroke="#1d1b26" stroke-width="4"/><circle cx="860" cy="1316" r="5" fill="#1d1b26"/><circle cx="980" cy="1316" r="17" fill="#5d6778" stroke="#1d1b26" stroke-width="4"/><circle cx="980" cy="1316" r="5" fill="#1d1b26"/><path d="M0 1236 H-70" stroke="#fff" stroke-width="6" stroke-linecap="round" opacity=".55"/><path d="M-12 1200 H-95" stroke="#fff" stroke-width="6" stroke-linecap="round" opacity=".55"/><path d="M-24 1164 H-120" stroke="#fff" stroke-width="6" stroke-linecap="round" opacity=".55"/><g transform="rotate(0 95 1209)"><path d="M20 1154 L46.25 1130.375 L196.25 1130.375 L170 1154 Z" fill="#dcaa6c" stroke="#1d1b26" stroke-width="4" stroke-linejoin="round"/><path d="M170 1154 L196.25 1130.375 L196.25 1240.375 L170 1264 Z" fill="#a8733a" stroke="#1d1b26" stroke-width="4" stroke-linejoin="round"/><rect x="20" y="1154" width="150" height="110" fill="#c98f4f" stroke="#1d1b26" stroke-width="4" stroke-linejoin="round"/><path d="M84.5 1154 L110.75 1130.375 L131.75 1130.375 L105.5 1154 Z" fill="#e9c88f" opacity=".9"/><rect x="84.5" y="1156" width="21.000000000000004" height="35.2" fill="#e9c88f" opacity=".9"/><rect x="32" y="1217.8" width="63" height="33" rx="3" fill="#fbfbf6" stroke="#1d1b26" stroke-width="2.5"/><rect x="38.3" y="1232.6499999999999" width="3.78" height="13.200000000000001" fill="#1d1b26"/><rect x="45.544999999999995" y="1232.6499999999999" width="1.89" height="13.200000000000001" fill="#1d1b26"/><rect x="52.79" y="1232.6499999999999" width="1.89" height="13.200000000000001" fill="#1d1b26"/><rect x="60.035" y="1232.6499999999999" width="3.78" height="13.200000000000001" fill="#1d1b26"/><rect x="67.28" y="1232.6499999999999" width="1.89" height="13.200000000000001" fill="#1d1b26"/><rect x="74.525" y="1232.6499999999999" width="1.89" height="13.200000000000001" fill="#1d1b26"/><rect x="81.77" y="1232.6499999999999" width="3.78" height="13.200000000000001" fill="#1d1b26"/><rect x="38.3" y="1222.75" width="37.8" height="3.96" fill="#1d1b26" opacity=".6"/><path d="M113 1220.44 V1195.8 M102.44 1206.36 L113 1195.8 L123.56 1206.36" fill="none" stroke="#9d1c1c" stroke-width="4.928000000000001" stroke-linecap="round" stroke-linejoin="round"/><path d="M132.36 1220.44 V1195.8 M121.8 1206.36 L132.36 1195.8 L142.92000000000002 1206.36" fill="none" stroke="#9d1c1c" stroke-width="4.928000000000001" stroke-linecap="round" stroke-linejoin="round"/></g><path d="M190 1244 H120" stroke="#fff" stroke-width="6" stroke-linecap="round" opacity=".55"/><path d="M178 1220 H95" stroke="#fff" stroke-width="6" stroke-linecap="round" opacity=".55"/><path d="M166 1196 H70" stroke="#fff" stroke-width="6" stroke-linecap="round" opacity=".55"/><g transform="rotate(-4 265 1224)"><path d="M210 1184 L229.25 1166.675 L339.25 1166.675 L320 1184 Z" fill="#dcaa6c" stroke="#1d1b26" stroke-width="4" stroke-linejoin="round"/><path d="M320 1184 L339.25 1166.675 L339.25 1246.675 L320 1264 Z" fill="#a8733a" stroke="#1d1b26" stroke-width="4" stroke-linejoin="round"/><rect x="210" y="1184" width="110" height="80" fill="#c98f4f" stroke="#1d1b26" stroke-width="4" stroke-linejoin="round"/><path d="M257.3 1184 L276.55 1166.675 L291.95 1166.675 L272.7 1184 Z" fill="#e9c88f" opacity=".9"/><rect x="257.3" y="1186" width="15.400000000000002" height="25.6" fill="#e9c88f" opacity=".9"/><rect x="218.8" y="1230.4" width="46.199999999999996" height="24" rx="3" fill="#fbfbf6" stroke="#1d1b26" stroke-width="2.5"/><rect x="223.42000000000002" y="1241.2" width="2.772" height="9.600000000000001" fill="#1d1b26"/><rect x="228.733" y="1241.2" width="1.386" height="9.600000000000001" fill="#1d1b26"/><rect x="234.04600000000002" y="1241.2" width="1.386" height="9.600000000000001" fill="#1d1b26"/><rect x="239.359" y="1241.2" width="2.772" height="9.600000000000001" fill="#1d1b26"/><rect x="244.67200000000003" y="1241.2" width="1.386" height="9.600000000000001" fill="#1d1b26"/><rect x="249.985" y="1241.2" width="1.386" height="9.600000000000001" fill="#1d1b26"/><rect x="255.298" y="1241.2" width="2.772" height="9.600000000000001" fill="#1d1b26"/><rect x="223.42000000000002" y="1234" width="27.719999999999995" height="2.88" fill="#1d1b26" opacity=".6"/></g><path d="M340 1232 H270" stroke="#fff" stroke-width="6" stroke-linecap="round" opacity=".55"/><path d="M328 1190 H245" stroke="#fff" stroke-width="6" stroke-linecap="round" opacity=".55"/><path d="M316 1148 H220" stroke="#fff" stroke-width="6" stroke-linecap="round" opacity=".55"/><g transform="rotate(3 420 1194)"><path d="M360 1124 L381 1105.1 L501 1105.1 L480 1124 Z" fill="#dcaa6c" stroke="#1d1b26" stroke-width="4" stroke-linejoin="round"/><path d="M480 1124 L501 1105.1 L501 1245.1 L480 1264 Z" fill="#a8733a" stroke="#1d1b26" stroke-width="4" stroke-linejoin="round"/><rect x="360" y="1124" width="120" height="140" fill="#c98f4f" stroke="#1d1b26" stroke-width="4" stroke-linejoin="round"/><path d="M411.6 1124 L432.6 1105.1 L449.4 1105.1 L428.4 1124 Z" fill="#e9c88f" opacity=".9"/><rect x="411.6" y="1126" width="16.8" height="44.800000000000004" fill="#e9c88f" opacity=".9"/><rect x="369.6" y="1205.2" width="50.4" height="42" rx="3" fill="#fbfbf6" stroke="#1d1b26" stroke-width="2.5"/><rect x="374.64000000000004" y="1224.1000000000001" width="3.024" height="16.8" fill="#1d1b26"/><rect x="380.43600000000004" y="1224.1000000000001" width="1.512" height="16.8" fill="#1d1b26"/><rect x="386.232" y="1224.1000000000001" width="1.512" height="16.8" fill="#1d1b26"/><rect x="392.028" y="1224.1000000000001" width="3.024" height="16.8" fill="#1d1b26"/><rect x="397.82400000000007" y="1224.1000000000001" width="1.512" height="16.8" fill="#1d1b26"/><rect x="403.62000000000006" y="1224.1000000000001" width="1.512" height="16.8" fill="#1d1b26"/><rect x="409.41600000000005" y="1224.1000000000001" width="3.024" height="16.8" fill="#1d1b26"/><rect x="374.64000000000004" y="1211.5" width="30.24" height="5.04" fill="#1d1b26" opacity=".6"/></g><g transform="rotate(-3 855 1214)"><path d="M790 1164 L812.75 1143.525 L942.75 1143.525 L920 1164 Z" fill="#dcaa6c" stroke="#1d1b26" stroke-width="4" stroke-linejoin="round"/><path d="M920 1164 L942.75 1143.525 L942.75 1243.525 L920 1264 Z" fill="#a8733a" stroke="#1d1b26" stroke-width="4" stroke-linejoin="round"/><rect x="790" y="1164" width="130" height="100" fill="#c98f4f" stroke="#1d1b26" stroke-width="4" stroke-linejoin="round"/><path d="M845.9 1164 L868.65 1143.525 L886.85 1143.525 L864.1 1164 Z" fill="#e9c88f" opacity=".9"/><rect x="845.9" y="1166" width="18.200000000000003" height="32" fill="#e9c88f" opacity=".9"/><rect x="800.4" y="1222" width="54.6" height="30" rx="3" fill="#fbfbf6" stroke="#1d1b26" stroke-width="2.5"/><rect x="805.86" y="1235.5" width="3.276" height="12" fill="#1d1b26"/><rect x="812.139" y="1235.5" width="1.638" height="12" fill="#1d1b26"/><rect x="818.418" y="1235.5" width="1.638" height="12" fill="#1d1b26"/><rect x="824.697" y="1235.5" width="3.276" height="12" fill="#1d1b26"/><rect x="830.976" y="1235.5" width="1.638" height="12" fill="#1d1b26"/><rect x="837.255" y="1235.5" width="1.638" height="12" fill="#1d1b26"/><rect x="843.534" y="1235.5" width="3.276" height="12" fill="#1d1b26"/><rect x="805.86" y="1226.5" width="32.76" height="3.5999999999999996" fill="#1d1b26" opacity=".6"/></g><g transform="rotate(6 990 1204)"><path d="M930 1144 L951 1125.1 L1071 1125.1 L1050 1144 Z" fill="#dcaa6c" stroke="#1d1b26" stroke-width="4" stroke-linejoin="round"/><path d="M1050 1144 L1071 1125.1 L1071 1245.1 L1050 1264 Z" fill="#a8733a" stroke="#1d1b26" stroke-width="4" stroke-linejoin="round"/><rect x="930" y="1144" width="120" height="120" fill="#c98f4f" stroke="#1d1b26" stroke-width="4" stroke-linejoin="round"/><path d="M981.6 1144 L1002.6 1125.1 L1019.4 1125.1 L998.4 1144 Z" fill="#e9c88f" opacity=".9"/><rect x="981.6" y="1146" width="16.8" height="38.4" fill="#e9c88f" opacity=".9"/><rect x="939.6" y="1213.6" width="50.4" height="36" rx="3" fill="#fbfbf6" stroke="#1d1b26" stroke-width="2.5"/><rect x="944.64" y="1229.8" width="3.024" height="14.4" fill="#1d1b26"/><rect x="950.436" y="1229.8" width="1.512" height="14.4" fill="#1d1b26"/><rect x="956.232" y="1229.8" width="1.512" height="14.4" fill="#1d1b26"/><rect x="962.028" y="1229.8" width="3.024" height="14.4" fill="#1d1b26"/><rect x="967.824" y="1229.8" width="1.512" height="14.4" fill="#1d1b26"/><rect x="973.62" y="1229.8" width="1.512" height="14.4" fill="#1d1b26"/><rect x="979.4159999999999" y="1229.8" width="3.024" height="14.4" fill="#1d1b26"/><rect x="944.64" y="1219" width="30.24" height="4.32" fill="#1d1b26" opacity=".6"/></g><g transform="rotate(-9 875 1113)"><path d="M820 1068 L839.25 1050.675 L949.25 1050.675 L930 1068 Z" fill="#dcaa6c" stroke="#1d1b26" stroke-width="4" stroke-linejoin="round"/><path d="M930 1068 L949.25 1050.675 L949.25 1140.675 L930 1158 Z" fill="#a8733a" stroke="#1d1b26" stroke-width="4" stroke-linejoin="round"/><rect x="820" y="1068" width="110" height="90" fill="#c98f4f" stroke="#1d1b26" stroke-width="4" stroke-linejoin="round"/><path d="M867.3 1068 L886.55 1050.675 L901.95 1050.675 L882.7 1068 Z" fill="#e9c88f" opacity=".9"/><rect x="867.3" y="1070" width="15.400000000000002" height="28.8" fill="#e9c88f" opacity=".9"/><rect x="828.8" y="1120.2" width="46.199999999999996" height="27" rx="3" fill="#fbfbf6" stroke="#1d1b26" stroke-width="2.5"/><rect x="833.42" y="1132.3500000000001" width="2.772" height="10.8" fill="#1d1b26"/><rect x="838.733" y="1132.3500000000001" width="1.386" height="10.8" fill="#1d1b26"/><rect x="844.0459999999999" y="1132.3500000000001" width="1.386" height="10.8" fill="#1d1b26"/><rect x="849.3589999999999" y="1132.3500000000001" width="2.772" height="10.8" fill="#1d1b26"/><rect x="854.6719999999999" y="1132.3500000000001" width="1.386" height="10.8" fill="#1d1b26"/><rect x="859.9849999999999" y="1132.3500000000001" width="1.386" height="10.8" fill="#1d1b26"/><rect x="865.298" y="1132.3500000000001" width="2.772" height="10.8" fill="#1d1b26"/><rect x="833.42" y="1124.25" width="27.719999999999995" height="3.2399999999999998" fill="#1d1b26" opacity=".6"/><path d="M888.2 1122.3600000000001 V1102.2 M879.5600000000001 1110.8400000000001 L888.2 1102.2 L896.84 1110.8400000000001" fill="none" stroke="#9d1c1c" stroke-width="4.032000000000001" stroke-linecap="round" stroke-linejoin="round"/><path d="M904.0400000000001 1122.3600000000001 V1102.2 M895.4000000000001 1110.8400000000001 L904.0400000000001 1102.2 L912.6800000000001 1110.8400000000001" fill="none" stroke="#9d1c1c" stroke-width="4.032000000000001" stroke-linecap="round" stroke-linejoin="round"/></g><g transform="rotate(14 1005 1102)"><path d="M960 1062 L975.75 1047.825 L1065.75 1047.825 L1050 1062 Z" fill="#dcaa6c" stroke="#1d1b26" stroke-width="4" stroke-linejoin="round"/><path d="M1050 1062 L1065.75 1047.825 L1065.75 1127.825 L1050 1142 Z" fill="#a8733a" stroke="#1d1b26" stroke-width="4" stroke-linejoin="round"/><rect x="960" y="1062" width="90" height="80" fill="#c98f4f" stroke="#1d1b26" stroke-width="4" stroke-linejoin="round"/><path d="M998.7 1062 L1014.45 1047.825 L1027.05 1047.825 L1011.3 1062 Z" fill="#e9c88f" opacity=".9"/><rect x="998.7" y="1064" width="12.600000000000001" height="25.6" fill="#e9c88f" opacity=".9"/><rect x="967.2" y="1108.4" width="37.8" height="24" rx="3" fill="#fbfbf6" stroke="#1d1b26" stroke-width="2.5"/><rect x="970.98" y="1119.2" width="2.268" height="9.600000000000001" fill="#1d1b26"/><rect x="975.327" y="1119.2" width="1.134" height="9.600000000000001" fill="#1d1b26"/><rect x="979.674" y="1119.2" width="1.134" height="9.600000000000001" fill="#1d1b26"/><rect x="984.0210000000001" y="1119.2" width="2.268" height="9.600000000000001" fill="#1d1b26"/><rect x="988.368" y="1119.2" width="1.134" height="9.600000000000001" fill="#1d1b26"/><rect x="992.715" y="1119.2" width="1.134" height="9.600000000000001" fill="#1d1b26"/><rect x="997.062" y="1119.2" width="2.268" height="9.600000000000001" fill="#1d1b26"/><rect x="970.98" y="1112" width="22.679999999999996" height="2.88" fill="#1d1b26" opacity=".6"/></g><g transform="rotate(22 930 1020)"><path d="M880 980 L897.5 964.25 L997.5 964.25 L980 980 Z" fill="#dcaa6c" stroke="#1d1b26" stroke-width="4" stroke-linejoin="round"/><path d="M980 980 L997.5 964.25 L997.5 1044.25 L980 1060 Z" fill="#a8733a" stroke="#1d1b26" stroke-width="4" stroke-linejoin="round"/><rect x="880" y="980" width="100" height="80" fill="#c98f4f" stroke="#1d1b26" stroke-width="4" stroke-linejoin="round"/><path d="M923 980 L940.5 964.25 L954.5 964.25 L937 980 Z" fill="#e9c88f" opacity=".9"/><rect x="923" y="982" width="14.000000000000002" height="25.6" fill="#e9c88f" opacity=".9"/><rect x="888" y="1026.4" width="42" height="24" rx="3" fill="#fbfbf6" stroke="#1d1b26" stroke-width="2.5"/><rect x="892.2" y="1037.2" width="2.52" height="9.600000000000001" fill="#1d1b26"/><rect x="897.0300000000001" y="1037.2" width="1.26" height="9.600000000000001" fill="#1d1b26"/><rect x="901.86" y="1037.2" width="1.26" height="9.600000000000001" fill="#1d1b26"/><rect x="906.69" y="1037.2" width="2.52" height="9.600000000000001" fill="#1d1b26"/><rect x="911.5200000000001" y="1037.2" width="1.26" height="9.600000000000001" fill="#1d1b26"/><rect x="916.35" y="1037.2" width="1.26" height="9.600000000000001" fill="#1d1b26"/><rect x="921.1800000000001" y="1037.2" width="2.52" height="9.600000000000001" fill="#1d1b26"/><rect x="892.2" y="1030" width="25.2" height="2.88" fill="#1d1b26" opacity=".6"/></g><g transform="rotate(38 1045 1415)"><path d="M990 1370 L1009.25 1352.675 L1119.25 1352.675 L1100 1370 Z" fill="#dcaa6c" stroke="#1d1b26" stroke-width="4" stroke-linejoin="round"/><path d="M1100 1370 L1119.25 1352.675 L1119.25 1442.675 L1100 1460 Z" fill="#a8733a" stroke="#1d1b26" stroke-width="4" stroke-linejoin="round"/><rect x="990" y="1370" width="110" height="90" fill="#c98f4f" stroke="#1d1b26" stroke-width="4" stroke-linejoin="round"/><path d="M1037.3 1370 L1056.55 1352.675 L1071.95 1352.675 L1052.7 1370 Z" fill="#e9c88f" opacity=".9"/><rect x="1037.3" y="1372" width="15.400000000000002" height="28.8" fill="#e9c88f" opacity=".9"/></g><path d="M960 1360 Q975 1395 990 1400 M1020 1350 Q1040 1385 1060 1390" fill="none" stroke="#fff" stroke-width="6" stroke-linecap="round" opacity=".6"/><g transform="rotate(-8 185 1765)"><path d="M110 1710 L136.25 1686.375 L286.25 1686.375 L260 1710 Z" fill="#dcaa6c" stroke="#1d1b26" stroke-width="4" stroke-linejoin="round"/><path d="M260 1710 L286.25 1686.375 L286.25 1796.375 L260 1820 Z" fill="#a8733a" stroke="#1d1b26" stroke-width="4" stroke-linejoin="round"/><rect x="110" y="1710" width="150" height="110" fill="#c98f4f" stroke="#1d1b26" stroke-width="4" stroke-linejoin="round"/><path d="M174.5 1710 L200.75 1686.375 L221.75 1686.375 L195.5 1710 Z" fill="#e9c88f" opacity=".9"/><rect x="174.5" y="1712" width="21.000000000000004" height="35.2" fill="#e9c88f" opacity=".9"/><rect x="122" y="1773.8" width="63" height="33" rx="3" fill="#fbfbf6" stroke="#1d1b26" stroke-width="2.5"/><rect x="128.3" y="1788.6499999999999" width="3.78" height="13.200000000000001" fill="#1d1b26"/><rect x="135.54500000000002" y="1788.6499999999999" width="1.89" height="13.200000000000001" fill="#1d1b26"/><rect x="142.79000000000002" y="1788.6499999999999" width="1.89" height="13.200000000000001" fill="#1d1b26"/><rect x="150.03500000000003" y="1788.6499999999999" width="3.78" height="13.200000000000001" fill="#1d1b26"/><rect x="157.28" y="1788.6499999999999" width="1.89" height="13.200000000000001" fill="#1d1b26"/><rect x="164.525" y="1788.6499999999999" width="1.89" height="13.200000000000001" fill="#1d1b26"/><rect x="171.77" y="1788.6499999999999" width="3.78" height="13.200000000000001" fill="#1d1b26"/><rect x="128.3" y="1778.75" width="37.8" height="3.96" fill="#1d1b26" opacity=".6"/></g><g transform="rotate(10 320 1790)"><path d="M260 1745 L281 1726.1 L401 1726.1 L380 1745 Z" fill="#dcaa6c" stroke="#1d1b26" stroke-width="4" stroke-linejoin="round"/><path d="M380 1745 L401 1726.1 L401 1816.1 L380 1835 Z" fill="#a8733a" stroke="#1d1b26" stroke-width="4" stroke-linejoin="round"/><rect x="260" y="1745" width="120" height="90" fill="#c98f4f" stroke="#1d1b26" stroke-width="4" stroke-linejoin="round"/><path d="M311.6 1745 L332.6 1726.1 L349.4 1726.1 L328.4 1745 Z" fill="#e9c88f" opacity=".9"/><rect x="311.6" y="1747" width="16.8" height="28.8" fill="#e9c88f" opacity=".9"/></g><g transform="rotate(6 840 1770)"><path d="M760 1710 L788 1684.8 L948 1684.8 L920 1710 Z" fill="#dcaa6c" stroke="#1d1b26" stroke-width="4" stroke-linejoin="round"/><path d="M920 1710 L948 1684.8 L948 1804.8 L920 1830 Z" fill="#a8733a" stroke="#1d1b26" stroke-width="4" stroke-linejoin="round"/><rect x="760" y="1710" width="160" height="120" fill="#c98f4f" stroke="#1d1b26" stroke-width="4" stroke-linejoin="round"/><path d="M828.8 1710 L856.8 1684.8 L879.2 1684.8 L851.2 1710 Z" fill="#e9c88f" opacity=".9"/><rect x="828.8" y="1712" width="22.400000000000002" height="38.4" fill="#e9c88f" opacity=".9"/><rect x="772.8" y="1779.6" width="67.2" height="36" rx="3" fill="#fbfbf6" stroke="#1d1b26" stroke-width="2.5"/><rect x="779.52" y="1795.8" width="4.032" height="14.4" fill="#1d1b26"/><rect x="787.2479999999999" y="1795.8" width="2.016" height="14.4" fill="#1d1b26"/><rect x="794.976" y="1795.8" width="2.016" height="14.4" fill="#1d1b26"/><rect x="802.704" y="1795.8" width="4.032" height="14.4" fill="#1d1b26"/><rect x="810.432" y="1795.8" width="2.016" height="14.4" fill="#1d1b26"/><rect x="818.16" y="1795.8" width="2.016" height="14.4" fill="#1d1b26"/><rect x="825.888" y="1795.8" width="4.032" height="14.4" fill="#1d1b26"/><rect x="779.52" y="1785" width="40.32" height="4.32" fill="#1d1b26" opacity=".6"/><path d="M859.2 1782.48 V1755.6 M847.6800000000001 1767.12 L859.2 1755.6 L870.72 1767.12" fill="none" stroke="#9d1c1c" stroke-width="5.376" stroke-linecap="round" stroke-linejoin="round"/><path d="M880.32 1782.48 V1755.6 M868.8000000000001 1767.12 L880.32 1755.6 L891.84 1767.12" fill="none" stroke="#9d1c1c" stroke-width="5.376" stroke-linecap="round" stroke-linejoin="round"/></g></svg>