<svg xmlns="http://www.w3.org/2000/svg" viewBox="0 0 1024 1024" width="1024" height="1024">
  <defs><radialGradient id="bg" cx="50%" cy="46%" r="70%"><stop offset="0%" stop-color="#22396a"/><stop offset="55%" stop-color="#13213a"/><stop offset="100%" stop-color="#0c1526"/></radialGradient></defs>
  <rect width="1024" height="1024" fill="url(#bg)"/>
  <g stroke="#e8b04a" stroke-width="16" stroke-linecap="round"><line x1="590" y1="222" x2="626" y2="87"/><circle cx="626" cy="87" r="20" fill="#13213a"/><line x1="802" y1="434" x2="937" y2="398"/><circle cx="937" cy="398" r="20" fill="#13213a"/><line x1="724" y1="724" x2="823" y2="823"/><circle cx="823" cy="823" r="20" fill="#13213a"/><line x1="434" y1="802" x2="398" y2="937"/><circle cx="398" cy="937" r="20" fill="#13213a"/><line x1="222" y1="590" x2="87" y2="626"/><circle cx="87" cy="626" r="20" fill="#13213a"/><line x1="300" y1="300" x2="201" y2="201"/><circle cx="201" cy="201" r="20" fill="#13213a"/></g>
  <polygon points="512.0,112.0 586.0,235.7 712.0,165.6 714.2,309.8 858.4,312.0 788.3,438.0 912.0,512.0 788.3,586.0 858.4,712.0 714.2,714.2 712.0,858.4 586.0,788.3 512.0,912.0 438.0,788.3 312.0,858.4 309.8,714.2 165.6,712.0 235.7,586.0 112.0,512.0 235.7,438.0 165.6,312.0 309.8,309.8 312.0,165.6 438.0,235.7" fill="none" stroke="#f7f1e6" stroke-width="24" stroke-linejoin="round"/>
  <circle cx="512" cy="512" r="252" fill="#e0662b"/>
  <path d="M260,547 A252,252 0 0 0 764,547 Z" fill="#c8102e"/>
  <polygon points="512.0,312.0 558.4,448.1 702.2,450.2 587.1,536.4 629.6,673.8 512.0,591.0 394.4,673.8 436.9,536.4 321.8,450.2 465.6,448.1" fill="#f7f1e6"/>
</svg>
